<?xml version="1.0" encoding="UTF-8" standalone="no"?>
<!DOCTYPE svg PUBLIC "-//W3C//DTD SVG 1.1//EN"
 "http://www.w3.org/Graphics/SVG/1.1/DTD/svg11.dtd">
<!-- Generated by graphviz version 13.1.2 (20250808.2320)
 -->
<!-- Title: クラス階層図 Pages: 1 -->
<svg width="340pt" height="66pt"
 viewBox="0.00 0.00 340.00 66.00" xmlns="http://www.w3.org/2000/svg" xmlns:xlink="http://www.w3.org/1999/xlink">
<g id="graph0" class="graph" transform="scale(1 1) rotate(0) translate(4 62)">
<title>クラス階層図</title>
<!-- Node0 -->
<g id="Node000000" class="node">
<title>Node0</title>
<g id="a_Node000000"><a xlink:href="struct_y_r_z_1_1_f_x_res.html" target="_top" xlink:title="リソース">
<polygon fill="white" stroke="#666666" points="73,-39 0,-39 0,-19 73,-19 73,-39"/>
<text xml:space="preserve" text-anchor="middle" x="36.5" y="-25.5" font-family="Helvetica,sans-Serif" font-size="10.00">YRZ::FXRes</text>
</a>
</g>
</g>
<!-- Node1 -->
<g id="Node000001" class="node">
<title>Node1</title>
<g id="a_Node000001"><a xlink:href="struct_y_r_z_1_1_f_x_buffer.html" target="_top" xlink:title="1次元のバッファ。構造体の配列として用いることが出来る">
<polygon fill="white" stroke="#666666" points="192.88,-58 112.38,-58 112.38,-38 192.88,-38 192.88,-58"/>
<text xml:space="preserve" text-anchor="middle" x="152.62" y="-44.5" font-family="Helvetica,sans-Serif" font-size="10.00">YRZ::FXBuffer</text>
</a>
</g>
</g>
<!-- Node0&#45;&gt;Node1 -->
<g id="edge1_Node000000_Node000001" class="edge">
<title>Node0&#45;&gt;Node1</title>
<g id="a_edge1_Node000000_Node000001"><a xlink:title=" ">
<path fill="none" stroke="#63b8ff" d="M84.58,-36.84C93.68,-38.35 103.14,-39.93 111.99,-41.4"/>
<polygon fill="#63b8ff" stroke="#63b8ff" points="85.23,-33.4 74.79,-35.21 84.08,-40.3 85.23,-33.4"/>
</a>
</g>
</g>
<!-- Node2 -->
<g id="Node000002" class="node">
<title>Node2</title>
<g id="a_Node000002"><a xlink:href="struct_y_r_z_1_1_f_x_texture.html" target="_top" xlink:title="2Dテクスチャ。typeを省略すると型はformatから自動的に設定される">
<polygon fill="white" stroke="#666666" points="196.25,-20 109,-20 109,0 196.25,0 196.25,-20"/>
<text xml:space="preserve" text-anchor="middle" x="152.62" y="-6.5" font-family="Helvetica,sans-Serif" font-size="10.00">YRZ::FXTexture</text>
</a>
</g>
</g>
<!-- Node0&#45;&gt;Node2 -->
<g id="edge2_Node000000_Node000002" class="edge">
<title>Node0&#45;&gt;Node2</title>
<g id="a_edge2_Node000000_Node000002"><a xlink:title=" ">
<path fill="none" stroke="#63b8ff" d="M84.43,-21.19C92.48,-19.85 100.81,-18.46 108.75,-17.14"/>
<polygon fill="#63b8ff" stroke="#63b8ff" points="84.08,-17.7 74.79,-22.79 85.23,-24.6 84.08,-17.7"/>
</a>
</g>
</g>
<!-- Node3 -->
<g id="Node000003" class="node">
<title>Node3</title>
<g id="a_Node000003"><a xlink:href="struct_y_r_z_1_1_f_x_texture3_d.html" target="_top" xlink:title="3Dテクスチャ。typeを省略すると型はformatから自動的に設定される">
<polygon fill="white" stroke="#666666" points="332.25,-20 232.25,-20 232.25,0 332.25,0 332.25,-20"/>
<text xml:space="preserve" text-anchor="middle" x="282.25" y="-6.5" font-family="Helvetica,sans-Serif" font-size="10.00">YRZ::FXTexture3D</text>
</a>
</g>
</g>
<!-- Node2&#45;&gt;Node3 -->
<g id="edge3_Node000002_Node000003" class="edge">
<title>Node2&#45;&gt;Node3</title>
<g id="a_edge3_Node000002_Node000003"><a xlink:title=" ">
<path fill="none" stroke="#63b8ff" d="M207.73,-10C215.82,-10 224.14,-10 232.12,-10"/>
<polygon fill="#63b8ff" stroke="#63b8ff" points="207.99,-6.5 197.99,-10 207.99,-13.5 207.99,-6.5"/>
</a>
</g>
</g>
</g>
</svg>
