<?xml version="1.0" encoding="UTF-8" standalone="no"?>
<!DOCTYPE svg PUBLIC "-//W3C//DTD SVG 1.1//EN"
 "http://www.w3.org/Graphics/SVG/1.1/DTD/svg11.dtd">
<!-- Generated by graphviz version 13.1.2 (20250808.2320)
 -->
<!-- Title: YRZ::FXRes Pages: 1 -->
<svg width="200pt" height="140pt"
 viewBox="0.00 0.00 200.00 140.00" xmlns="http://www.w3.org/2000/svg" xmlns:xlink="http://www.w3.org/1999/xlink">
<g id="graph0" class="graph" transform="scale(1 1) rotate(0) translate(4 136)">
<title>YRZ::FXRes</title>
<!-- Node1 -->
<g id="Node000001" class="node">
<title>Node1</title>
<g id="a_Node000001"><a xlink:title="リソース">
<polygon fill="#999999" stroke="#666666" points="127.75,-132 54.75,-132 54.75,-112 127.75,-112 127.75,-132"/>
<text xml:space="preserve" text-anchor="middle" x="91.25" y="-118.5" font-family="Helvetica,sans-Serif" font-size="10.00">YRZ::FXRes</text>
</a>
</g>
</g>
<!-- Node2 -->
<g id="Node000002" class="node">
<title>Node2</title>
<g id="a_Node000002"><a xlink:href="struct_y_r_z_1_1_f_x_buffer.html" target="_top" xlink:title="1次元のバッファ。構造体の配列として用いることが出来る">
<polygon fill="white" stroke="#666666" points="80.5,-76 0,-76 0,-56 80.5,-56 80.5,-76"/>
<text xml:space="preserve" text-anchor="middle" x="40.25" y="-62.5" font-family="Helvetica,sans-Serif" font-size="10.00">YRZ::FXBuffer</text>
</a>
</g>
</g>
<!-- Node1&#45;&gt;Node2 -->
<g id="edge1_Node000001_Node000002" class="edge">
<title>Node1&#45;&gt;Node2</title>
<g id="a_edge1_Node000001_Node000002"><a xlink:title=" ">
<path fill="none" stroke="#63b8ff" d="M74.52,-103.29C66.01,-94.28 56.02,-83.7 49.03,-76.3"/>
<polygon fill="#63b8ff" stroke="#63b8ff" points="71.92,-105.63 81.33,-110.49 77.01,-100.82 71.92,-105.63"/>
</a>
</g>
</g>
<!-- Node3 -->
<g id="Node000003" class="node">
<title>Node3</title>
<g id="a_Node000003"><a xlink:href="struct_y_r_z_1_1_f_x_texture.html" target="_top" xlink:title="2Dテクスチャ。typeを省略すると型はformatから自動的に設定される">
<polygon fill="white" stroke="#666666" points="185.88,-76 98.62,-76 98.62,-56 185.88,-56 185.88,-76"/>
<text xml:space="preserve" text-anchor="middle" x="142.25" y="-62.5" font-family="Helvetica,sans-Serif" font-size="10.00">YRZ::FXTexture</text>
</a>
</g>
</g>
<!-- Node1&#45;&gt;Node3 -->
<g id="edge2_Node000001_Node000003" class="edge">
<title>Node1&#45;&gt;Node3</title>
<g id="a_edge2_Node000001_Node000003"><a xlink:title=" ">
<path fill="none" stroke="#63b8ff" d="M107.98,-103.29C116.49,-94.28 126.48,-83.7 133.47,-76.3"/>
<polygon fill="#63b8ff" stroke="#63b8ff" points="105.49,-100.82 101.17,-110.49 110.58,-105.63 105.49,-100.82"/>
</a>
</g>
</g>
<!-- Node4 -->
<g id="Node000004" class="node">
<title>Node4</title>
<g id="a_Node000004"><a xlink:href="struct_y_r_z_1_1_f_x_texture3_d.html" target="_top" xlink:title="3Dテクスチャ。typeを省略すると型はformatから自動的に設定される">
<polygon fill="white" stroke="#666666" points="192.25,-20 92.25,-20 92.25,0 192.25,0 192.25,-20"/>
<text xml:space="preserve" text-anchor="middle" x="142.25" y="-6.5" font-family="Helvetica,sans-Serif" font-size="10.00">YRZ::FXTexture3D</text>
</a>
</g>
</g>
<!-- Node3&#45;&gt;Node4 -->
<g id="edge3_Node000003_Node000004" class="edge">
<title>Node3&#45;&gt;Node4</title>
<g id="a_edge3_Node000003_Node000004"><a xlink:title=" ">
<path fill="none" stroke="#63b8ff" d="M142.25,-44.13C142.25,-35.9 142.25,-26.85 142.25,-20.3"/>
<polygon fill="#63b8ff" stroke="#63b8ff" points="138.75,-44.08 142.25,-54.08 145.75,-44.08 138.75,-44.08"/>
</a>
</g>
</g>
</g>
</svg>
