<?xml version="1.0" encoding="UTF-8" standalone="no"?>
<!DOCTYPE svg PUBLIC "-//W3C//DTD SVG 1.1//EN"
 "http://www.w3.org/Graphics/SVG/1.1/DTD/svg11.dtd">
<!-- Generated by graphviz version 13.1.2 (20250808.2320)
 -->
<!-- Title: YRZ::FXPass Pages: 1 -->
<!--zoomable 196 -->

<svg id="main" version="1.1" xmlns="http://www.w3.org/2000/svg" xmlns:xlink="http://www.w3.org/1999/xlink" xml:space="preserve" onload="init(evt)">

<style type="text/css"><![CDATA[
.node, .edge {opacity: 0.7;}
.node.selected, .edge.selected {opacity: 1;}
.edge:hover path { stroke: red; }
.edge:hover polygon { stroke: red; fill: red; }
]]></style>

<defs>
  <circle id="rim" cx="0" cy="0" r="7"/>
  <circle id="rim2" cx="0" cy="0" r="3.5"/>
  <g id="zoomPlus">
    <use xlink:href="#rim" fill="#404040"><set attributeName="fill" to="#808080" begin="zoomplus.mouseover" end="zoomplus.mouseout"/></use>
    <path d="M-4,0h8M0,-4v8" fill="none" stroke="white" stroke-width="1.5" pointer-events="none"/>
  </g>
  <g id="zoomMin">
    <use xlink:href="#rim" fill="#404040"><set attributeName="fill" to="#808080" begin="zoomminus.mouseover" end="zoomminus.mouseout"/></use>
    <path d="M-4,0h8" fill="none" stroke="white" stroke-width="1.5" pointer-events="none"/>
  </g>
  <g id="arrowUp" transform="translate(30 24)">
    <use xlink:href="#rim"/>
    <path pointer-events="none" fill="none" stroke="white" stroke-width="1.5" d="M0,-3.0v7 M-2.5,-0.5L0,-3.0L2.5,-0.5"/>
  </g>
  <g id="arrowRight" transform="rotate(90) translate(36 -43)">
    <use xlink:href="#rim"/>
    <path pointer-events="none" fill="none" stroke="white" stroke-width="1.5" d="M0,-3.0v7 M-2.5,-0.5L0,-3.0L2.5,-0.5"/>
  </g>
  <g id="arrowDown" transform="rotate(180) translate(-30 -48)">
    <use xlink:href="#rim"/>
    <path pointer-events="none" fill="none" stroke="white" stroke-width="1.5" d="M0,-3.0v7 M-2.5,-0.5L0,-3.0L2.5,-0.5"/>
  </g>
  <g id="arrowLeft" transform="rotate(270) translate(-36 17)">
    <use xlink:href="#rim"/>
    <path pointer-events="none" fill="none" stroke="white" stroke-width="1.5" d="M0,-3.0v7 M-2.5,-0.5L0,-3.0L2.5,-0.5"/>
  </g>
  <g id="resetDef">
    <use xlink:href="#rim2" fill="#404040"><set attributeName="fill" to="#808080" begin="reset.mouseover" end="reset.mouseout"/></use>
  </g>
</defs>
<script type="application/ecmascript">
var viewWidth = 595;
var viewHeight = 196;
var sectionId = 'dynsection-0';
</script>
<script type="application/ecmascript" xlink:href="svg.min.js"/>
<svg id="graph" class="graph">
<g id="viewport">
<title>YRZ::FXPass</title>
<!-- Node1 -->
<g id="Node000001" class="node">
<title>Node1</title>
<g id="a_Node000001"><a xlink:title="パスを定義するための構造体">
<polygon fill="#999999" stroke="#666666" points="586.5,-102 509,-102 509,-82 586.5,-82 586.5,-102"/>
<text xml:space="preserve" text-anchor="middle" x="547.75" y="-88.5" font-family="Helvetica,sans-Serif" font-size="10.00">YRZ::FXPass</text>
</a>
</g>
</g>
<!-- Node2 -->
<g id="Node000002" class="node">
<title>Node2</title>
<g id="a_Node000002"><a xlink:href="struct_y_r_z_1_1_f_x_size.html" target="_top" xlink:title="リソースや出力先のサイズを表す構造体">
<polygon fill="white" stroke="#666666" points="359.75,-184 285.25,-184 285.25,-164 359.75,-164 359.75,-184"/>
<text xml:space="preserve" text-anchor="middle" x="322.5" y="-170.5" font-family="Helvetica,sans-Serif" font-size="10.00">YRZ::FXSize</text>
</a>
</g>
</g>
<!-- Node2&#45;&gt;Node1 -->
<g id="edge1_Node000001_Node000002" class="edge">
<title>Node2&#45;&gt;Node1</title>
<g id="a_edge1_Node000001_Node000002"><a xlink:title=" ">
<path fill="none" stroke="#9a32cd" stroke-dasharray="5,2" d="M371.41,-173.96C406.27,-172.15 453.71,-165.91 491,-147 511.86,-136.43 529.85,-115.23 539.42,-102.46"/>
<polygon fill="#9a32cd" stroke="#9a32cd" points="371.46,-170.45 361.61,-174.35 371.74,-177.45 371.46,-170.45"/>
</a>
</g>
<text xml:space="preserve" text-anchor="start" x="426.12" y="-175.56" font-family="Helvetica,sans-Serif" font-size="10.00" fill="grey">outputSize</text>
</g>
<!-- Node3 -->
<g id="Node000003" class="node">
<title>Node3</title>
<g id="a_Node000003"><a xlink:href="struct_y_r_z_1_1_f_x_d_s_v.html" target="_top" xlink:title="DSVに指定する要素">
<polygon fill="white" stroke="#666666" points="360.5,-143 284.5,-143 284.5,-123 360.5,-123 360.5,-143"/>
<text xml:space="preserve" text-anchor="middle" x="322.5" y="-129.5" font-family="Helvetica,sans-Serif" font-size="10.00">YRZ::FXDSV</text>
</a>
</g>
</g>
<!-- Node3&#45;&gt;Node1 -->
<g id="edge2_Node000001_Node000003" class="edge">
<title>Node3&#45;&gt;Node1</title>
<g id="a_edge2_Node000001_Node000003"><a xlink:title=" ">
<path fill="none" stroke="#9a32cd" stroke-dasharray="5,2" d="M372.18,-129.17C405.86,-125.9 451.53,-120.22 491,-111 500.46,-108.79 510.58,-105.6 519.56,-102.47"/>
<polygon fill="#9a32cd" stroke="#9a32cd" points="371.94,-125.68 362.31,-130.09 372.59,-132.65 371.94,-125.68"/>
</a>
</g>
<text xml:space="preserve" text-anchor="start" x="438.88" y="-130.56" font-family="Helvetica,sans-Serif" font-size="10.00" fill="grey">DSV</text>
</g>
<!-- Node4 -->
<g id="Node000004" class="node">
<title>Node4</title>
<g id="a_Node000004"><a xlink:href="struct_y_r_z_1_1_f_x_blend_desc.html" target="_top" xlink:title="D3D12_BLEND_DESCを参照">
<polygon fill="white" stroke="#666666" points="374,-102 271,-102 271,-82 374,-82 374,-102"/>
<text xml:space="preserve" text-anchor="middle" x="322.5" y="-88.5" font-family="Helvetica,sans-Serif" font-size="10.00">YRZ::FXBlendDesc</text>
</a>
</g>
</g>
<!-- Node4&#45;&gt;Node1 -->
<g id="edge3_Node000001_Node000004" class="edge">
<title>Node4&#45;&gt;Node1</title>
<g id="a_edge3_Node000001_Node000004"><a xlink:title=" ">
<path fill="none" stroke="#9a32cd" stroke-dasharray="5,2" d="M385.78,-92C425.2,-92 474.89,-92 508.56,-92"/>
<polygon fill="#9a32cd" stroke="#9a32cd" points="385.95,-88.5 375.95,-92 385.95,-95.5 385.95,-88.5"/>
</a>
</g>
<text xml:space="preserve" text-anchor="start" x="426.12" y="-97.5" font-family="Helvetica,sans-Serif" font-size="10.00" fill="grey">blendDesc</text>
</g>
<!-- Node5 -->
<g id="Node000005" class="node">
<title>Node5</title>
<g id="a_Node000005"><a xlink:href="struct_y_r_z_1_1_f_x_rendertarget_blend_desc.html" target="_top" xlink:title="D3D12_RENDER_TARGET_BLEND_DESCを参照">
<polygon fill="white" stroke="#666666" points="159.25,-102 0,-102 0,-82 159.25,-82 159.25,-102"/>
<text xml:space="preserve" text-anchor="middle" x="79.62" y="-88.5" font-family="Helvetica,sans-Serif" font-size="10.00">YRZ::FXRendertargetBlendDesc</text>
</a>
</g>
</g>
<!-- Node5&#45;&gt;Node4 -->
<g id="edge4_Node000004_Node000005" class="edge">
<title>Node5&#45;&gt;Node4</title>
<g id="a_edge4_Node000004_Node000005"><a xlink:title=" ">
<path fill="none" stroke="#9a32cd" stroke-dasharray="5,2" d="M170.78,-92C204.48,-92 241.57,-92 270.52,-92"/>
<polygon fill="#9a32cd" stroke="#9a32cd" points="171.01,-88.5 161.01,-92 171.01,-95.5 171.01,-88.5"/>
</a>
</g>
<text xml:space="preserve" text-anchor="start" x="180.25" y="-97.5" font-family="Helvetica,sans-Serif" font-size="10.00" fill="grey">renderTarget</text>
</g>
<!-- Node6 -->
<g id="Node000006" class="node">
<title>Node6</title>
<g id="a_Node000006"><a xlink:href="struct_y_r_z_1_1_f_x_rasterizer_desc.html" target="_top" xlink:title="D3D12_RASTERIZER_DESCを参照">
<polygon fill="white" stroke="#666666" points="384.12,-61 260.88,-61 260.88,-41 384.12,-41 384.12,-61"/>
<text xml:space="preserve" text-anchor="middle" x="322.5" y="-47.5" font-family="Helvetica,sans-Serif" font-size="10.00">YRZ::FXRasterizerDesc</text>
</a>
</g>
</g>
<!-- Node6&#45;&gt;Node1 -->
<g id="edge5_Node000001_Node000006" class="edge">
<title>Node6&#45;&gt;Node1</title>
<g id="a_edge5_Node000001_Node000006"><a xlink:title=" ">
<path fill="none" stroke="#9a32cd" stroke-dasharray="5,2" d="M395.45,-54.99C425.33,-57.72 460.15,-62.31 491,-70 502.21,-72.79 514.18,-77.3 524.14,-81.51"/>
<polygon fill="#9a32cd" stroke="#9a32cd" points="396.04,-51.53 385.77,-54.16 395.44,-58.5 396.04,-51.53"/>
</a>
</g>
<text xml:space="preserve" text-anchor="start" x="417.5" y="-75.5" font-family="Helvetica,sans-Serif" font-size="10.00" fill="grey">rasterizerDesc</text>
</g>
<!-- Node7 -->
<g id="Node000007" class="node">
<title>Node7</title>
<g id="a_Node000007"><a xlink:href="struct_y_r_z_1_1_f_x_depth_stencil_desc.html" target="_top" xlink:title="D3D12_DEPTH_STENCIL_DESCを参照">
<polygon fill="white" stroke="#666666" points="389.75,-20 255.25,-20 255.25,0 389.75,0 389.75,-20"/>
<text xml:space="preserve" text-anchor="middle" x="322.5" y="-6.5" font-family="Helvetica,sans-Serif" font-size="10.00">YRZ::FXDepthStencilDesc</text>
</a>
</g>
</g>
<!-- Node7&#45;&gt;Node1 -->
<g id="edge6_Node000001_Node000007" class="edge">
<title>Node7&#45;&gt;Node1</title>
<g id="a_edge6_Node000001_Node000007"><a xlink:title=" ">
<path fill="none" stroke="#9a32cd" stroke-dasharray="5,2" d="M401.24,-10.54C430.67,-13.41 463.65,-19.98 491,-34 512.87,-45.21 531.02,-68.42 540.23,-81.83"/>
<polygon fill="#9a32cd" stroke="#9a32cd" points="401.92,-7.09 391.66,-9.74 401.34,-14.06 401.92,-7.09"/>
</a>
</g>
<text xml:space="preserve" text-anchor="start" x="410.75" y="-39.5" font-family="Helvetica,sans-Serif" font-size="10.00" fill="grey">depthStencilDesc</text>
</g>
<!-- Node8 -->
<g id="Node000008" class="node">
<title>Node8</title>
<g id="a_Node000008"><a xlink:href="struct_y_r_z_1_1_f_x_depth_stencil_op_desc.html" target="_top" xlink:title="D3D12_DEPTH_STENCILOP_DESCを参照">
<polygon fill="white" stroke="#666666" points="153.25,-20 6,-20 6,0 153.25,0 153.25,-20"/>
<text xml:space="preserve" text-anchor="middle" x="79.62" y="-6.5" font-family="Helvetica,sans-Serif" font-size="10.00">YRZ::FXDepthStencilOpDesc</text>
</a>
</g>
</g>
<!-- Node8&#45;&gt;Node7 -->
<g id="edge7_Node000007_Node000008" class="edge">
<title>Node8&#45;&gt;Node7</title>
<g id="a_edge7_Node000007_Node000008"><a xlink:title=" ">
<path fill="none" stroke="#9a32cd" stroke-dasharray="5,2" d="M164.71,-10C194.27,-10 227.06,-10 254.98,-10"/>
<polygon fill="#9a32cd" stroke="#9a32cd" points="165.06,-6.5 155.06,-10 165.06,-13.5 165.06,-6.5"/>
</a>
</g>
<text xml:space="preserve" text-anchor="start" x="185.88" y="-31.5" font-family="Helvetica,sans-Serif" font-size="10.00" fill="grey">backFace</text>
<text xml:space="preserve" text-anchor="start" x="185.88" y="-15.5" font-family="Helvetica,sans-Serif" font-size="10.00" fill="grey">frontFace</text>
</g>
</g>
</svg>

<g id="navigator" transform="translate(0 0)" fill="#404254">
  <rect fill="#f2f5e9" fill-opacity="0.5" stroke="#606060" stroke-width=".5" x="0" y="0" width="60" height="60"/>
  <use id="zoomplus" xlink:href="#zoomPlus" x="17" y="9" onmousedown="handleZoom(evt,'in')"/>
  <use id="zoomminus" xlink:href="#zoomMin" x="42" y="9" onmousedown="handleZoom(evt,'out')"/>
  <use id="reset" xlink:href="#resetDef" x="30" y="36" onmousedown="handleReset()"/>
   <use id="arrowup" xlink:href="#arrowUp" x="0" y="0" onmousedown="handlePan(0,-1)"/>
  <use id="arrowright" xlink:href="#arrowRight" x="0" y="0" onmousedown="handlePan(1,0)"/>
  <use id="arrowdown" xlink:href="#arrowDown" x="0" y="0" onmousedown="handlePan(0,1)"/>
  <use id="arrowleft" xlink:href="#arrowLeft" x="0" y="0" onmousedown="handlePan(-1,0)"/>
</g>
<svg viewBox="0 0 15 15" width="100%" height="30px" preserveAspectRatio="xMaxYMin meet">
 <g id="arrow_out" transform="scale(0.3 0.3)">
  <a xlink:href="struct_y_r_z_1_1_f_x_pass__coll__graph_org.svg" target="_base">
   <rect id="button" ry="5" rx="5" y="6" x="6" height="38" width="38"
        fill="#f2f5e9" fill-opacity="0.5" stroke="#606060" stroke-width="1.0"/>
   <path id="arrow"
     d="M 11.500037,31.436501 C 11.940474,20.09759 22.043105,11.32322 32.158766,21.979434 L 37.068811,17.246167 C 37.068811,17.246167 37.088388,32 37.088388,32 L 22.160133,31.978069 C 22.160133,31.978069 26.997745,27.140456 26.997745,27.140456 C 18.528582,18.264221 13.291696,25.230495 11.500037,31.436501 z"
     style="fill:#404040;"/>
  </a>
 </g>
</svg>

<style type='text/css'>
<![CDATA[
[data-mouse-over-selected='false'] { opacity: 0.7; }
[data-mouse-over-selected='true']  { opacity: 1.0; }
]]>
</style>
<script type="application/ecmascript"><![CDATA[
document.addEventListener('DOMContentLoaded', (event) => {
  highlightEdges();
  highlightAdjacentNodes();
});
]]></script>
</svg>
