<?xml version="1.0" encoding="UTF-8" standalone="no"?>
<!DOCTYPE svg PUBLIC "-//W3C//DTD SVG 1.1//EN"
 "http://www.w3.org/Graphics/SVG/1.1/DTD/svg11.dtd">
<!-- Generated by graphviz version 13.1.2 (20250808.2320)
 -->
<!-- Title: YRZ::FXTexture3D Pages: 1 -->
<svg width="174pt" height="159pt"
 viewBox="0.00 0.00 174.00 159.00" xmlns="http://www.w3.org/2000/svg" xmlns:xlink="http://www.w3.org/1999/xlink">
<g id="graph0" class="graph" transform="scale(1 1) rotate(0) translate(4 155)">
<title>YRZ::FXTexture3D</title>
<!-- Node1 -->
<g id="Node000001" class="node">
<title>Node1</title>
<g id="a_Node000001"><a xlink:title="3Dテクスチャ。typeを省略すると型はformatから自動的に設定される">
<polygon fill="#999999" stroke="#666666" points="132.5,-20 32.5,-20 32.5,0 132.5,0 132.5,-20"/>
<text xml:space="preserve" text-anchor="middle" x="82.5" y="-6.5" font-family="Helvetica,sans-Serif" font-size="10.00">YRZ::FXTexture3D</text>
</a>
</g>
</g>
<!-- Node2 -->
<g id="Node000002" class="node">
<title>Node2</title>
<g id="a_Node000002"><a xlink:href="struct_y_r_z_1_1_f_x_texture.html" target="_top" xlink:title="2Dテクスチャ。typeを省略すると型はformatから自動的に設定される">
<polygon fill="white" stroke="#666666" points="126.12,-77 38.88,-77 38.88,-57 126.12,-57 126.12,-77"/>
<text xml:space="preserve" text-anchor="middle" x="82.5" y="-63.5" font-family="Helvetica,sans-Serif" font-size="10.00">YRZ::FXTexture</text>
</a>
</g>
</g>
<!-- Node2&#45;&gt;Node1 -->
<g id="edge1_Node000001_Node000002" class="edge">
<title>Node2&#45;&gt;Node1</title>
<g id="a_edge1_Node000001_Node000002"><a xlink:title=" ">
<path fill="none" stroke="#63b8ff" d="M82.5,-45.69C82.5,-36.97 82.5,-27.22 82.5,-20.28"/>
<polygon fill="#63b8ff" stroke="#63b8ff" points="79,-45.4 82.5,-55.4 86,-45.4 79,-45.4"/>
</a>
</g>
</g>
<!-- Node3 -->
<g id="Node000003" class="node">
<title>Node3</title>
<g id="a_Node000003"><a xlink:href="struct_y_r_z_1_1_f_x_res.html" target="_top" xlink:title="リソース">
<polygon fill="white" stroke="#666666" points="73,-151 0,-151 0,-131 73,-131 73,-151"/>
<text xml:space="preserve" text-anchor="middle" x="36.5" y="-137.5" font-family="Helvetica,sans-Serif" font-size="10.00">YRZ::FXRes</text>
</a>
</g>
</g>
<!-- Node3&#45;&gt;Node2 -->
<g id="edge2_Node000002_Node000003" class="edge">
<title>Node3&#45;&gt;Node2</title>
<g id="a_edge2_Node000002_Node000003"><a xlink:title=" ">
<path fill="none" stroke="#63b8ff" d="M48.46,-121.27C57.52,-107.1 69.56,-88.25 76.63,-77.19"/>
<polygon fill="#63b8ff" stroke="#63b8ff" points="45.76,-119 43.33,-129.31 51.66,-122.77 45.76,-119"/>
</a>
</g>
</g>
<!-- Node4 -->
<g id="Node000004" class="node">
<title>Node4</title>
<g id="a_Node000004"><a xlink:href="struct_y_r_z_1_1_f_x_size.html" target="_top" xlink:title="リソースや出力先のサイズを表す構造体">
<polygon fill="white" stroke="#666666" points="165.75,-151 91.25,-151 91.25,-131 165.75,-131 165.75,-151"/>
<text xml:space="preserve" text-anchor="middle" x="128.5" y="-137.5" font-family="Helvetica,sans-Serif" font-size="10.00">YRZ::FXSize</text>
</a>
</g>
</g>
<!-- Node4&#45;&gt;Node2 -->
<g id="edge3_Node000002_Node000004" class="edge">
<title>Node4&#45;&gt;Node2</title>
<g id="a_edge3_Node000002_Node000004"><a xlink:title=" ">
<path fill="none" stroke="#9a32cd" stroke-dasharray="5,2" d="M116.54,-121.27C107.48,-107.1 95.44,-88.25 88.37,-77.19"/>
<polygon fill="#9a32cd" stroke="#9a32cd" points="113.34,-122.77 121.67,-129.31 119.24,-119 113.34,-122.77"/>
</a>
</g>
<text xml:space="preserve" text-anchor="start" x="113.97" y="-100.5" font-family="Helvetica,sans-Serif" font-size="10.00" fill="grey">size</text>
</g>
</g>
</svg>
