<?xml version="1.0" encoding="UTF-8" standalone="no"?>
<!DOCTYPE svg PUBLIC "-//W3C//DTD SVG 1.1//EN"
 "http://www.w3.org/Graphics/SVG/1.1/DTD/svg11.dtd">
<!-- Generated by graphviz version 13.1.2 (20250808.2320)
 -->
<!-- Title: YRZ::FXPass Pages: 1 -->
<svg width="595pt" height="196pt"
 viewBox="0.00 0.00 595.00 196.00" xmlns="http://www.w3.org/2000/svg" xmlns:xlink="http://www.w3.org/1999/xlink">
<g id="graph0" class="graph" transform="scale(1 1) rotate(0) translate(4 192.06)">
<title>YRZ::FXPass</title>
<!-- Node1 -->
<g id="Node000001" class="node">
<title>Node1</title>
<g id="a_Node000001"><a xlink:title="パスを定義するための構造体">
<polygon fill="#999999" stroke="#666666" points="586.5,-102 509,-102 509,-82 586.5,-82 586.5,-102"/>
<text xml:space="preserve" text-anchor="middle" x="547.75" y="-88.5" font-family="Helvetica,sans-Serif" font-size="10.00">YRZ::FXPass</text>
</a>
</g>
</g>
<!-- Node2 -->
<g id="Node000002" class="node">
<title>Node2</title>
<g id="a_Node000002"><a xlink:href="struct_y_r_z_1_1_f_x_size.html" target="_top" xlink:title="リソースや出力先のサイズを表す構造体">
<polygon fill="white" stroke="#666666" points="359.75,-184 285.25,-184 285.25,-164 359.75,-164 359.75,-184"/>
<text xml:space="preserve" text-anchor="middle" x="322.5" y="-170.5" font-family="Helvetica,sans-Serif" font-size="10.00">YRZ::FXSize</text>
</a>
</g>
</g>
<!-- Node2&#45;&gt;Node1 -->
<g id="edge1_Node000001_Node000002" class="edge">
<title>Node2&#45;&gt;Node1</title>
<g id="a_edge1_Node000001_Node000002"><a xlink:title=" ">
<path fill="none" stroke="#9a32cd" stroke-dasharray="5,2" d="M371.41,-173.96C406.27,-172.15 453.71,-165.91 491,-147 511.86,-136.43 529.85,-115.23 539.42,-102.46"/>
<polygon fill="#9a32cd" stroke="#9a32cd" points="371.46,-170.45 361.61,-174.35 371.74,-177.45 371.46,-170.45"/>
</a>
</g>
<text xml:space="preserve" text-anchor="start" x="426.12" y="-175.56" font-family="Helvetica,sans-Serif" font-size="10.00" fill="grey">outputSize</text>
</g>
<!-- Node3 -->
<g id="Node000003" class="node">
<title>Node3</title>
<g id="a_Node000003"><a xlink:href="struct_y_r_z_1_1_f_x_d_s_v.html" target="_top" xlink:title="DSVに指定する要素">
<polygon fill="white" stroke="#666666" points="360.5,-143 284.5,-143 284.5,-123 360.5,-123 360.5,-143"/>
<text xml:space="preserve" text-anchor="middle" x="322.5" y="-129.5" font-family="Helvetica,sans-Serif" font-size="10.00">YRZ::FXDSV</text>
</a>
</g>
</g>
<!-- Node3&#45;&gt;Node1 -->
<g id="edge2_Node000001_Node000003" class="edge">
<title>Node3&#45;&gt;Node1</title>
<g id="a_edge2_Node000001_Node000003"><a xlink:title=" ">
<path fill="none" stroke="#9a32cd" stroke-dasharray="5,2" d="M372.18,-129.17C405.86,-125.9 451.53,-120.22 491,-111 500.46,-108.79 510.58,-105.6 519.56,-102.47"/>
<polygon fill="#9a32cd" stroke="#9a32cd" points="371.94,-125.68 362.31,-130.09 372.59,-132.65 371.94,-125.68"/>
</a>
</g>
<text xml:space="preserve" text-anchor="start" x="438.88" y="-130.56" font-family="Helvetica,sans-Serif" font-size="10.00" fill="grey">DSV</text>
</g>
<!-- Node4 -->
<g id="Node000004" class="node">
<title>Node4</title>
<g id="a_Node000004"><a xlink:href="struct_y_r_z_1_1_f_x_blend_desc.html" target="_top" xlink:title="D3D12_BLEND_DESCを参照">
<polygon fill="white" stroke="#666666" points="374,-102 271,-102 271,-82 374,-82 374,-102"/>
<text xml:space="preserve" text-anchor="middle" x="322.5" y="-88.5" font-family="Helvetica,sans-Serif" font-size="10.00">YRZ::FXBlendDesc</text>
</a>
</g>
</g>
<!-- Node4&#45;&gt;Node1 -->
<g id="edge3_Node000001_Node000004" class="edge">
<title>Node4&#45;&gt;Node1</title>
<g id="a_edge3_Node000001_Node000004"><a xlink:title=" ">
<path fill="none" stroke="#9a32cd" stroke-dasharray="5,2" d="M385.78,-92C425.2,-92 474.89,-92 508.56,-92"/>
<polygon fill="#9a32cd" stroke="#9a32cd" points="385.95,-88.5 375.95,-92 385.95,-95.5 385.95,-88.5"/>
</a>
</g>
<text xml:space="preserve" text-anchor="start" x="426.12" y="-97.5" font-family="Helvetica,sans-Serif" font-size="10.00" fill="grey">blendDesc</text>
</g>
<!-- Node5 -->
<g id="Node000005" class="node">
<title>Node5</title>
<g id="a_Node000005"><a xlink:href="struct_y_r_z_1_1_f_x_rendertarget_blend_desc.html" target="_top" xlink:title="D3D12_RENDER_TARGET_BLEND_DESCを参照">
<polygon fill="white" stroke="#666666" points="159.25,-102 0,-102 0,-82 159.25,-82 159.25,-102"/>
<text xml:space="preserve" text-anchor="middle" x="79.62" y="-88.5" font-family="Helvetica,sans-Serif" font-size="10.00">YRZ::FXRendertargetBlendDesc</text>
</a>
</g>
</g>
<!-- Node5&#45;&gt;Node4 -->
<g id="edge4_Node000004_Node000005" class="edge">
<title>Node5&#45;&gt;Node4</title>
<g id="a_edge4_Node000004_Node000005"><a xlink:title=" ">
<path fill="none" stroke="#9a32cd" stroke-dasharray="5,2" d="M170.78,-92C204.48,-92 241.57,-92 270.52,-92"/>
<polygon fill="#9a32cd" stroke="#9a32cd" points="171.01,-88.5 161.01,-92 171.01,-95.5 171.01,-88.5"/>
</a>
</g>
<text xml:space="preserve" text-anchor="start" x="180.25" y="-97.5" font-family="Helvetica,sans-Serif" font-size="10.00" fill="grey">renderTarget</text>
</g>
<!-- Node6 -->
<g id="Node000006" class="node">
<title>Node6</title>
<g id="a_Node000006"><a xlink:href="struct_y_r_z_1_1_f_x_rasterizer_desc.html" target="_top" xlink:title="D3D12_RASTERIZER_DESCを参照">
<polygon fill="white" stroke="#666666" points="384.12,-61 260.88,-61 260.88,-41 384.12,-41 384.12,-61"/>
<text xml:space="preserve" text-anchor="middle" x="322.5" y="-47.5" font-family="Helvetica,sans-Serif" font-size="10.00">YRZ::FXRasterizerDesc</text>
</a>
</g>
</g>
<!-- Node6&#45;&gt;Node1 -->
<g id="edge5_Node000001_Node000006" class="edge">
<title>Node6&#45;&gt;Node1</title>
<g id="a_edge5_Node000001_Node000006"><a xlink:title=" ">
<path fill="none" stroke="#9a32cd" stroke-dasharray="5,2" d="M395.45,-54.99C425.33,-57.72 460.15,-62.31 491,-70 502.21,-72.79 514.18,-77.3 524.14,-81.51"/>
<polygon fill="#9a32cd" stroke="#9a32cd" points="396.04,-51.53 385.77,-54.16 395.44,-58.5 396.04,-51.53"/>
</a>
</g>
<text xml:space="preserve" text-anchor="start" x="417.5" y="-75.5" font-family="Helvetica,sans-Serif" font-size="10.00" fill="grey">rasterizerDesc</text>
</g>
<!-- Node7 -->
<g id="Node000007" class="node">
<title>Node7</title>
<g id="a_Node000007"><a xlink:href="struct_y_r_z_1_1_f_x_depth_stencil_desc.html" target="_top" xlink:title="D3D12_DEPTH_STENCIL_DESCを参照">
<polygon fill="white" stroke="#666666" points="389.75,-20 255.25,-20 255.25,0 389.75,0 389.75,-20"/>
<text xml:space="preserve" text-anchor="middle" x="322.5" y="-6.5" font-family="Helvetica,sans-Serif" font-size="10.00">YRZ::FXDepthStencilDesc</text>
</a>
</g>
</g>
<!-- Node7&#45;&gt;Node1 -->
<g id="edge6_Node000001_Node000007" class="edge">
<title>Node7&#45;&gt;Node1</title>
<g id="a_edge6_Node000001_Node000007"><a xlink:title=" ">
<path fill="none" stroke="#9a32cd" stroke-dasharray="5,2" d="M401.24,-10.54C430.67,-13.41 463.65,-19.98 491,-34 512.87,-45.21 531.02,-68.42 540.23,-81.83"/>
<polygon fill="#9a32cd" stroke="#9a32cd" points="401.92,-7.09 391.66,-9.74 401.34,-14.06 401.92,-7.09"/>
</a>
</g>
<text xml:space="preserve" text-anchor="start" x="410.75" y="-39.5" font-family="Helvetica,sans-Serif" font-size="10.00" fill="grey">depthStencilDesc</text>
</g>
<!-- Node8 -->
<g id="Node000008" class="node">
<title>Node8</title>
<g id="a_Node000008"><a xlink:href="struct_y_r_z_1_1_f_x_depth_stencil_op_desc.html" target="_top" xlink:title="D3D12_DEPTH_STENCILOP_DESCを参照">
<polygon fill="white" stroke="#666666" points="153.25,-20 6,-20 6,0 153.25,0 153.25,-20"/>
<text xml:space="preserve" text-anchor="middle" x="79.62" y="-6.5" font-family="Helvetica,sans-Serif" font-size="10.00">YRZ::FXDepthStencilOpDesc</text>
</a>
</g>
</g>
<!-- Node8&#45;&gt;Node7 -->
<g id="edge7_Node000007_Node000008" class="edge">
<title>Node8&#45;&gt;Node7</title>
<g id="a_edge7_Node000007_Node000008"><a xlink:title=" ">
<path fill="none" stroke="#9a32cd" stroke-dasharray="5,2" d="M164.71,-10C194.27,-10 227.06,-10 254.98,-10"/>
<polygon fill="#9a32cd" stroke="#9a32cd" points="165.06,-6.5 155.06,-10 165.06,-13.5 165.06,-6.5"/>
</a>
</g>
<text xml:space="preserve" text-anchor="start" x="185.88" y="-31.5" font-family="Helvetica,sans-Serif" font-size="10.00" fill="grey">backFace</text>
<text xml:space="preserve" text-anchor="start" x="185.88" y="-15.5" font-family="Helvetica,sans-Serif" font-size="10.00" fill="grey">frontFace</text>
</g>
</g>
</svg>
